<svg width="63" height="24" viewBox="0 0 63 24" fill="none" xmlns="http://www.w3.org/2000/svg">
<path d="M2.93 23.21C2.17 23.21 1.54 22.98 1.04 22.52C0.56 22.04 0.32 21.45 0.32 20.75C0.32 20.05 0.56 19.47 1.04 19.01C1.54 18.53 2.17 18.29 2.93 18.29C3.67 18.29 4.28 18.53 4.76 19.01C5.24 19.47 5.48 20.05 5.48 20.75C5.48 21.45 5.24 22.04 4.76 22.52C4.28 22.98 3.67 23.21 2.93 23.21Z" fill="#0075FF"/>
<path d="M7.78297 14.63C7.78297 12.95 8.11297 11.46 8.77297 10.16C9.45297 8.86 10.373 7.86 11.533 7.16C12.693 6.46 13.983 6.11 15.403 6.11C16.483 6.11 17.513 6.35 18.493 6.83C19.473 7.29 20.253 7.91 20.833 8.69V0.8H25.093V23H20.833V20.54C20.313 21.36 19.583 22.02 18.643 22.52C17.703 23.02 16.613 23.27 15.373 23.27C13.973 23.27 12.693 22.91 11.533 22.19C10.373 21.47 9.45297 20.46 8.77297 19.16C8.11297 17.84 7.78297 16.33 7.78297 14.63ZM20.863 14.69C20.863 13.67 20.663 12.8 20.263 12.08C19.863 11.34 19.323 10.78 18.643 10.4C17.963 10 17.233 9.8 16.453 9.8C15.673 9.8 14.953 9.99 14.293 10.37C13.633 10.75 13.093 11.31 12.673 12.05C12.273 12.77 12.073 13.63 12.073 14.63C12.073 15.63 12.273 16.51 12.673 17.27C13.093 18.01 13.633 18.58 14.293 18.98C14.973 19.38 15.693 19.58 16.453 19.58C17.233 19.58 17.963 19.39 18.643 19.01C19.323 18.61 19.863 18.05 20.263 17.33C20.663 16.59 20.863 15.71 20.863 14.69ZM28.115 14.63C28.115 12.95 28.445 11.46 29.105 10.16C29.785 8.86 30.695 7.86 31.835 7.16C32.995 6.46 34.285 6.11 35.705 6.11C36.945 6.11 38.025 6.36 38.945 6.86C39.885 7.36 40.635 7.99 41.195 8.75V6.38H45.425V23H41.195V20.57C40.655 21.35 39.905 22 38.945 22.52C38.005 23.02 36.915 23.27 35.675 23.27C34.275 23.27 32.995 22.91 31.835 22.19C30.695 21.47 29.785 20.46 29.105 19.16C28.445 17.84 28.115 16.33 28.115 14.63ZM41.195 14.69C41.195 13.67 40.995 12.8 40.595 12.08C40.195 11.34 39.655 10.78 38.975 10.4C38.295 10 37.565 9.8 36.785 9.8C36.005 9.8 35.285 9.99 34.625 10.37C33.965 10.75 33.425 11.31 33.005 12.05C32.605 12.77 32.405 13.63 32.405 14.63C32.405 15.63 32.605 16.51 33.005 17.27C33.425 18.01 33.965 18.58 34.625 18.98C35.305 19.38 36.025 19.58 36.785 19.58C37.565 19.58 38.295 19.39 38.975 19.01C39.655 18.61 40.195 18.05 40.595 17.33C40.995 16.59 41.195 15.71 41.195 14.69ZM55.887 23.27C54.527 23.27 53.307 23.03 52.227 22.55C51.147 22.05 50.287 21.38 49.647 20.54C49.027 19.7 48.687 18.77 48.627 17.75H52.857C52.937 18.39 53.247 18.92 53.787 19.34C54.347 19.76 55.037 19.97 55.857 19.97C56.657 19.97 57.277 19.81 57.717 19.49C58.177 19.17 58.407 18.76 58.407 18.26C58.407 17.72 58.127 17.32 57.567 17.06C57.027 16.78 56.157 16.48 54.957 16.16C53.717 15.86 52.697 15.55 51.897 15.23C51.117 14.91 50.437 14.42 49.857 13.76C49.297 13.1 49.017 12.21 49.017 11.09C49.017 10.17 49.277 9.33 49.797 8.57C50.337 7.81 51.097 7.21 52.077 6.77C53.077 6.33 54.247 6.11 55.587 6.11C57.567 6.11 59.147 6.61 60.327 7.61C61.507 8.59 62.157 9.92 62.277 11.6H58.257C58.197 10.94 57.917 10.42 57.417 10.04C56.937 9.64 56.287 9.44 55.467 9.44C54.707 9.44 54.117 9.58 53.697 9.86C53.297 10.14 53.097 10.53 53.097 11.03C53.097 11.59 53.377 12.02 53.937 12.32C54.497 12.6 55.367 12.89 56.547 13.19C57.747 13.49 58.737 13.8 59.517 14.12C60.297 14.44 60.967 14.94 61.527 15.62C62.107 16.28 62.407 17.16 62.427 18.26C62.427 19.22 62.157 20.08 61.617 20.84C61.097 21.6 60.337 22.2 59.337 22.64C58.357 23.06 57.207 23.27 55.887 23.27Z" fill="white"/>
</svg>
