<svg width="52" height="24" viewBox="0 0 52 24" fill="none" xmlns="http://www.w3.org/2000/svg">
<path d="M22.9 2.06V23H18.7V9.38L13.09 23H9.91L4.27 9.38V23H0.0700002V2.06H4.84L11.5 17.63L18.16 2.06H22.9ZM33.7654 14.63C33.7654 12.95 34.0954 11.46 34.7554 10.16C35.4354 8.86 36.3554 7.86 37.5154 7.16C38.6754 6.46 39.9654 6.11 41.3854 6.11C42.4654 6.11 43.4954 6.35 44.4754 6.83C45.4554 7.29 46.2354 7.91 46.8154 8.69V0.8H51.0754V23H46.8154V20.54C46.2954 21.36 45.5654 22.02 44.6254 22.52C43.6854 23.02 42.5954 23.27 41.3554 23.27C39.9554 23.27 38.6754 22.91 37.5154 22.19C36.3554 21.47 35.4354 20.46 34.7554 19.16C34.0954 17.84 33.7654 16.33 33.7654 14.63ZM46.8454 14.69C46.8454 13.67 46.6454 12.8 46.2454 12.08C45.8454 11.34 45.3054 10.78 44.6254 10.4C43.9454 10 43.2154 9.8 42.4354 9.8C41.6554 9.8 40.9354 9.99 40.2754 10.37C39.6154 10.75 39.0754 11.31 38.6554 12.05C38.2554 12.77 38.0554 13.63 38.0554 14.63C38.0554 15.63 38.2554 16.51 38.6554 17.27C39.0754 18.01 39.6154 18.58 40.2754 18.98C40.9554 19.38 41.6754 19.58 42.4354 19.58C43.2154 19.58 43.9454 19.39 44.6254 19.01C45.3054 18.61 45.8454 18.05 46.2454 17.33C46.6454 16.59 46.8454 15.71 46.8454 14.69Z" fill="white"/>
<path d="M28.9124 23.21C28.1524 23.21 27.5224 22.98 27.0224 22.52C26.5424 22.04 26.3024 21.45 26.3024 20.75C26.3024 20.05 26.5424 19.47 27.0224 19.01C27.5224 18.53 28.1524 18.29 28.9124 18.29C29.6524 18.29 30.2624 18.53 30.7424 19.01C31.2224 19.47 31.4624 20.05 31.4624 20.75C31.4624 21.45 31.2224 22.04 30.7424 22.52C30.2624 22.98 29.6524 23.21 28.9124 23.21Z" fill="#0075FF"/>
</svg>
