<svg width="146" height="24" viewBox="0 0 146 24" fill="none" xmlns="http://www.w3.org/2000/svg">
<path d="M22.9 2.06V23H18.7V9.38L13.09 23H9.91L4.27 9.38V23H0.0700002V2.06H4.84L11.5 17.63L18.16 2.06H22.9ZM34.4324 23.27C32.8324 23.27 31.3924 22.92 30.1124 22.22C28.8324 21.5 27.8224 20.49 27.0824 19.19C26.3624 17.89 26.0024 16.39 26.0024 14.69C26.0024 12.99 26.3724 11.49 27.1124 10.19C27.8724 8.89 28.9024 7.89 30.2024 7.19C31.5024 6.47 32.9524 6.11 34.5524 6.11C36.1524 6.11 37.6024 6.47 38.9024 7.19C40.2024 7.89 41.2224 8.89 41.9624 10.19C42.7224 11.49 43.1024 12.99 43.1024 14.69C43.1024 16.39 42.7124 17.89 41.9324 19.19C41.1724 20.49 40.1324 21.5 38.8124 22.22C37.5124 22.92 36.0524 23.27 34.4324 23.27ZM34.4324 19.61C35.1924 19.61 35.9024 19.43 36.5624 19.07C37.2424 18.69 37.7824 18.13 38.1824 17.39C38.5824 16.65 38.7824 15.75 38.7824 14.69C38.7824 13.11 38.3624 11.9 37.5224 11.06C36.7024 10.2 35.6924 9.77 34.4924 9.77C33.2924 9.77 32.2824 10.2 31.4624 11.06C30.6624 11.9 30.2624 13.11 30.2624 14.69C30.2624 16.27 30.6524 17.49 31.4324 18.35C32.2324 19.19 33.2324 19.61 34.4324 19.61ZM55.3933 6.14C57.3733 6.14 58.9733 6.77 60.1933 8.03C61.4133 9.27 62.0233 11.01 62.0233 13.25V23H57.8233V13.82C57.8233 12.5 57.4933 11.49 56.8333 10.79C56.1733 10.07 55.2733 9.71 54.1333 9.71C52.9733 9.71 52.0533 10.07 51.3733 10.79C50.7133 11.49 50.3833 12.5 50.3833 13.82V23H46.1833V6.38H50.3833V8.45C50.9433 7.73 51.6533 7.17 52.5133 6.77C53.3933 6.35 54.3533 6.14 55.3933 6.14ZM81.4673 14.33C81.4673 14.93 81.4273 15.47 81.3473 15.95H69.1973C69.2973 17.15 69.7173 18.09 70.4573 18.77C71.1973 19.45 72.1073 19.79 73.1873 19.79C74.7473 19.79 75.8573 19.12 76.5173 17.78H81.0473C80.5673 19.38 79.6473 20.7 78.2873 21.74C76.9273 22.76 75.2573 23.27 73.2773 23.27C71.6773 23.27 70.2373 22.92 68.9573 22.22C67.6973 21.5 66.7073 20.49 65.9873 19.19C65.2873 17.89 64.9373 16.39 64.9373 14.69C64.9373 12.97 65.2873 11.46 65.9873 10.16C66.6873 8.86 67.6673 7.86 68.9273 7.16C70.1873 6.46 71.6373 6.11 73.2773 6.11C74.8573 6.11 76.2673 6.45 77.5073 7.13C78.7673 7.81 79.7373 8.78 80.4173 10.04C81.1173 11.28 81.4673 12.71 81.4673 14.33ZM77.1173 13.13C77.0973 12.05 76.7073 11.19 75.9473 10.55C75.1873 9.89 74.2573 9.56 73.1573 9.56C72.1173 9.56 71.2373 9.88 70.5173 10.52C69.8173 11.14 69.3873 12.01 69.2273 13.13H77.1173ZM91.2459 14.63C91.2459 12.95 91.5759 11.46 92.2359 10.16C92.9159 8.86 93.8359 7.86 94.9959 7.16C96.1559 6.46 97.4459 6.11 98.8659 6.11C99.9459 6.11 100.976 6.35 101.956 6.83C102.936 7.29 103.716 7.91 104.296 8.69V0.8H108.556V23H104.296V20.54C103.776 21.36 103.046 22.02 102.106 22.52C101.166 23.02 100.076 23.27 98.8359 23.27C97.4359 23.27 96.1559 22.91 94.9959 22.19C93.8359 21.47 92.9159 20.46 92.2359 19.16C91.5759 17.84 91.2459 16.33 91.2459 14.63ZM104.326 14.69C104.326 13.67 104.126 12.8 103.726 12.08C103.326 11.34 102.786 10.78 102.106 10.4C101.426 10 100.696 9.8 99.9159 9.8C99.1359 9.8 98.4159 9.99 97.7559 10.37C97.0959 10.75 96.5559 11.31 96.1359 12.05C95.7359 12.77 95.5359 13.63 95.5359 14.63C95.5359 15.63 95.7359 16.51 96.1359 17.27C96.5559 18.01 97.0959 18.58 97.7559 18.98C98.4359 19.38 99.1559 19.58 99.9159 19.58C100.696 19.58 101.426 19.39 102.106 19.01C102.786 18.61 103.326 18.05 103.726 17.33C104.126 16.59 104.326 15.71 104.326 14.69ZM111.578 14.63C111.578 12.95 111.908 11.46 112.568 10.16C113.248 8.86 114.158 7.86 115.298 7.16C116.458 6.46 117.748 6.11 119.168 6.11C120.408 6.11 121.488 6.36 122.408 6.86C123.348 7.36 124.098 7.99 124.658 8.75V6.38H128.888V23H124.658V20.57C124.118 21.35 123.368 22 122.408 22.52C121.468 23.02 120.378 23.27 119.138 23.27C117.738 23.27 116.458 22.91 115.298 22.19C114.158 21.47 113.248 20.46 112.568 19.16C111.908 17.84 111.578 16.33 111.578 14.63ZM124.658 14.69C124.658 13.67 124.458 12.8 124.058 12.08C123.658 11.34 123.118 10.78 122.438 10.4C121.758 10 121.028 9.8 120.248 9.8C119.468 9.8 118.748 9.99 118.088 10.37C117.428 10.75 116.888 11.31 116.468 12.05C116.068 12.77 115.868 13.63 115.868 14.63C115.868 15.63 116.068 16.51 116.468 17.27C116.888 18.01 117.428 18.58 118.088 18.98C118.768 19.38 119.488 19.58 120.248 19.58C121.028 19.58 121.758 19.39 122.438 19.01C123.118 18.61 123.658 18.05 124.058 17.33C124.458 16.59 124.658 15.71 124.658 14.69ZM139.35 23.27C137.99 23.27 136.77 23.03 135.69 22.55C134.61 22.05 133.75 21.38 133.11 20.54C132.49 19.7 132.15 18.77 132.09 17.75H136.32C136.4 18.39 136.71 18.92 137.25 19.34C137.81 19.76 138.5 19.97 139.32 19.97C140.12 19.97 140.74 19.81 141.18 19.49C141.64 19.17 141.87 18.76 141.87 18.26C141.87 17.72 141.59 17.32 141.03 17.06C140.49 16.78 139.62 16.48 138.42 16.16C137.18 15.86 136.16 15.55 135.36 15.23C134.58 14.91 133.9 14.42 133.32 13.76C132.76 13.1 132.48 12.21 132.48 11.09C132.48 10.17 132.74 9.33 133.26 8.57C133.8 7.81 134.56 7.21 135.54 6.77C136.54 6.33 137.71 6.11 139.05 6.11C141.03 6.11 142.61 6.61 143.79 7.61C144.97 8.59 145.62 9.92 145.74 11.6H141.72C141.66 10.94 141.38 10.42 140.88 10.04C140.4 9.64 139.75 9.44 138.93 9.44C138.17 9.44 137.58 9.58 137.16 9.86C136.76 10.14 136.56 10.53 136.56 11.03C136.56 11.59 136.84 12.02 137.4 12.32C137.96 12.6 138.83 12.89 140.01 13.19C141.21 13.49 142.2 13.8 142.98 14.12C143.76 14.44 144.43 14.94 144.99 15.62C145.57 16.28 145.87 17.16 145.89 18.26C145.89 19.22 145.62 20.08 145.08 20.84C144.56 21.6 143.8 22.2 142.8 22.64C141.82 23.06 140.67 23.27 139.35 23.27Z" fill="white"/>
<path d="M86.3929 23.21C85.6329 23.21 85.0029 22.98 84.5029 22.52C84.0229 22.04 83.7829 21.45 83.7829 20.75C83.7829 20.05 84.0229 19.47 84.5029 19.01C85.0029 18.53 85.6329 18.29 86.3929 18.29C87.1329 18.29 87.7429 18.53 88.2229 19.01C88.7029 19.47 88.9429 20.05 88.9429 20.75C88.9429 21.45 88.7029 22.04 88.2229 22.52C87.7429 22.98 87.1329 23.21 86.3929 23.21Z" fill="#0075FF"/>
</svg>
